<svg width="413" height="96" viewBox="0 0 413 96" fill="none" xmlns="http://www.w3.org/2000/svg">
<path d="M3.28125 92V41.0909H17.1023V80.8636H37.6847V92H3.28125ZM57.0925 41.0909V92H43.2715V41.0909H57.0925ZM63.6426 92V41.0909H85.7164C89.5943 41.0909 92.8507 41.6129 95.4856 42.657C98.1371 43.701 100.134 45.1759 101.476 47.0817C102.835 48.9875 103.515 51.233 103.515 53.8182C103.515 55.6908 103.1 57.3977 102.272 58.9389C101.46 60.4801 100.316 61.7727 98.8414 62.8168C97.3665 63.8442 95.6431 64.5568 93.671 64.9545V65.4517C95.8585 65.5346 97.8471 66.0897 99.6369 67.1172C101.427 68.1281 102.852 69.5284 103.912 71.3182C104.973 73.0914 105.503 75.1794 105.503 77.5824C105.503 80.3665 104.774 82.844 103.316 85.0149C101.874 87.1858 99.8192 88.8928 97.1511 90.1357C94.483 91.3786 91.3012 92 87.6056 92H63.6426ZM77.4636 80.9631H83.9267C86.2467 80.9631 87.9868 80.5322 89.1468 79.6705C90.3069 78.7921 90.8869 77.4995 90.8869 75.7926C90.8869 74.5994 90.6135 73.5885 90.0666 72.7599C89.5197 71.9313 88.7408 71.3016 87.7299 70.8707C86.7356 70.4399 85.5342 70.2244 84.1255 70.2244H77.4636V80.9631ZM77.4636 61.6733H83.1312C84.341 61.6733 85.4099 61.4827 86.3379 61.1016C87.2659 60.7204 87.9868 60.1735 88.5005 59.4609C89.0308 58.7318 89.296 57.8452 89.296 56.8011C89.296 55.2268 88.7325 54.0253 87.6056 53.1967C86.4788 52.3516 85.0536 51.929 83.3301 51.929H77.4636V61.6733ZM110.4 92V41.0909H147.091V52.2273H124.221V60.9773H145.202V72.1136H124.221V80.8636H146.991V92H110.4ZM153.945 92V41.0909H175.92C179.698 41.0909 183.004 41.7786 185.838 43.1541C188.672 44.5296 190.876 46.5099 192.45 49.0952C194.025 51.6804 194.812 54.7794 194.812 58.392C194.812 62.0379 194 65.112 192.376 67.6143C190.768 70.1167 188.506 72.0059 185.589 73.282C182.689 74.558 179.3 75.196 175.423 75.196H162.298V64.4574H172.638C174.263 64.4574 175.646 64.2585 176.79 63.8608C177.95 63.4465 178.836 62.7919 179.45 61.897C180.079 61.0021 180.394 59.8338 180.394 58.392C180.394 56.9337 180.079 55.7488 179.45 54.8374C178.836 53.9093 177.95 53.2299 176.79 52.799C175.646 52.3516 174.263 52.1278 172.638 52.1278H167.766V92H153.945ZM183.775 68.6335L196.502 92H181.488L169.059 68.6335H183.775ZM199.311 52.2273V41.0909H243.558V52.2273H228.246V92H214.624V52.2273H199.311ZM278.888 41.0909H292.709V73.7045C292.709 77.5824 291.781 80.9382 289.925 83.772C288.085 86.5893 285.516 88.7685 282.219 90.3097C278.921 91.8343 275.093 92.5966 270.734 92.5966C266.343 92.5966 262.498 91.8343 259.2 90.3097C255.902 88.7685 253.334 86.5893 251.494 83.772C249.671 80.9382 248.76 77.5824 248.76 73.7045V41.0909H262.581V72.5114C262.581 74.0857 262.929 75.4943 263.625 76.7372C264.321 77.9635 265.282 78.9247 266.508 79.6207C267.751 80.3168 269.16 80.6648 270.734 80.6648C272.325 80.6648 273.734 80.3168 274.96 79.6207C276.186 78.9247 277.148 77.9635 277.844 76.7372C278.54 75.4943 278.888 74.0857 278.888 72.5114V41.0909ZM326.721 57C326.588 55.3428 325.967 54.0502 324.856 53.1222C323.762 52.1941 322.097 51.7301 319.86 51.7301C318.435 51.7301 317.266 51.9041 316.355 52.2521C315.46 52.5836 314.797 53.0393 314.366 53.6193C313.935 54.1993 313.712 54.8622 313.695 55.608C313.662 56.2211 313.77 56.7763 314.018 57.2734C314.283 57.754 314.698 58.1932 315.261 58.5909C315.824 58.9721 316.545 59.3201 317.424 59.6349C318.302 59.9498 319.346 60.2315 320.556 60.4801L324.732 61.375C327.549 61.9716 329.96 62.7588 331.966 63.7365C333.971 64.7143 335.611 65.866 336.887 67.1918C338.163 68.5009 339.1 69.9759 339.696 71.6165C340.31 73.2571 340.624 75.0469 340.641 76.9858C340.624 80.3333 339.788 83.1671 338.13 85.4872C336.473 87.8073 334.103 89.5722 331.021 90.782C327.955 91.9917 324.268 92.5966 319.959 92.5966C315.534 92.5966 311.673 91.942 308.375 90.6328C305.094 89.3236 302.542 87.3101 300.719 84.5923C298.913 81.858 298.001 78.3613 297.985 74.1023H311.11C311.193 75.66 311.582 76.9692 312.278 78.0298C312.974 79.0904 313.952 79.8942 315.211 80.4411C316.487 80.9879 318.004 81.2614 319.76 81.2614C321.235 81.2614 322.47 81.0791 323.464 80.7145C324.458 80.3499 325.212 79.8445 325.726 79.1982C326.24 78.5518 326.505 77.8144 326.522 76.9858C326.505 76.2069 326.248 75.5275 325.751 74.9474C325.27 74.3509 324.475 73.8205 323.365 73.3565C322.254 72.8759 320.755 72.4285 318.865 72.0142L313.794 70.9205C309.287 69.9427 305.732 68.3104 303.13 66.0234C300.545 63.7199 299.261 60.5795 299.277 56.6023C299.261 53.3707 300.123 50.5452 301.863 48.1257C303.619 45.6896 306.047 43.7921 309.146 42.4332C312.261 41.0743 315.833 40.3949 319.86 40.3949C323.97 40.3949 327.524 41.0826 330.524 42.4581C333.523 43.8336 335.835 45.7725 337.459 48.2749C339.1 50.7607 339.928 53.669 339.945 57H326.721Z" fill="url(#paint0_linear_103_118)"/>
<path d="M78.8704 18.1069C78.4374 16.022 77.6399 14.4041 76.4778 13.2534C75.3271 12.1027 73.9428 11.5273 72.325 11.5273C70.7413 11.5273 69.5108 11.9033 68.6335 12.6553C67.7677 13.4072 67.3347 14.4098 67.3347 15.6631C67.3347 16.3581 67.3974 16.9334 67.5227 17.3892C67.648 17.8449 67.9044 18.2892 68.2917 18.7222C68.6791 19.1437 69.2431 19.5197 69.9836 19.8501C70.7242 20.1691 71.6926 20.4767 72.8889 20.7729C73.5383 20.9325 74.1023 21.0806 74.5808 21.2173C75.0707 21.354 75.6062 21.542 76.1873 21.7812C76.7797 22.0205 77.2867 22.2769 77.7083 22.5503C78.1412 22.8237 78.5684 23.1655 78.99 23.5757C79.4229 23.9744 79.7704 24.4188 80.0325 24.9087C80.3059 25.3986 80.5224 25.9797 80.6819 26.6519C80.8528 27.3127 80.9382 28.0361 80.9382 28.8223C80.9382 29.8704 80.7445 30.8389 80.3572 31.7275C79.9698 32.6048 79.4628 33.3454 78.8362 33.9492C78.2096 34.5531 77.4861 35.0658 76.6658 35.4873C75.8455 35.9089 75.0138 36.2165 74.1707 36.4102C73.3276 36.6038 72.4902 36.7007 71.6584 36.7007C69.1292 36.7007 66.4347 36.0456 63.575 34.7354C63.6319 33.5049 63.6604 32.7472 63.6604 32.4624C63.6604 30.6053 63.5066 28.7539 63.199 26.9082C63.3243 26.8285 63.4496 26.7886 63.575 26.7886C63.7345 26.7886 63.8769 26.8285 64.0022 26.9082C64.2415 28.3779 64.6345 29.6768 65.1814 30.8047C65.7397 31.9326 66.3777 32.827 67.0955 33.4878C67.8132 34.1372 68.5538 34.6271 69.3171 34.9575C70.0919 35.2765 70.8723 35.436 71.6584 35.436C73.4472 35.436 74.8201 34.9746 75.7771 34.0518C76.7455 33.1175 77.2297 31.887 77.2297 30.3604C77.2297 28.8223 76.8708 27.6659 76.1531 26.8911C75.4467 26.105 74.0909 25.467 72.0857 24.9771C69.5792 24.3504 67.6195 23.4276 66.2068 22.2085C64.8054 20.978 64.1047 19.3545 64.1047 17.3379C64.1047 16.2783 64.2756 15.3327 64.6174 14.501C64.9706 13.6579 65.4207 12.9857 65.9675 12.4844C66.5258 11.9717 67.1752 11.5501 67.9158 11.2197C68.6563 10.8779 69.3855 10.6444 70.1033 10.519C70.8324 10.3823 71.573 10.314 72.325 10.314C74.5808 10.314 76.9278 10.8381 79.366 11.8862C79.2976 12.5584 79.2634 13.2591 79.2634 13.9883C79.2634 15.6973 79.4001 17.0701 79.6736 18.1069C79.5255 18.1639 79.4001 18.1924 79.2976 18.1924C79.1837 18.1924 79.0413 18.1639 78.8704 18.1069ZM96.5583 10.6216C96.7292 10.4963 96.9115 10.4165 97.1052 10.3823L106.453 33.7271C106.567 34.0119 106.755 34.2568 107.017 34.4619C107.279 34.6556 107.604 34.8094 107.991 34.9233C108.39 35.0259 108.732 35.1056 109.017 35.1626C109.313 35.2082 109.672 35.2537 110.094 35.2993C110.139 35.4816 110.162 35.6354 110.162 35.7607C110.162 35.8975 110.139 36.0228 110.094 36.1367C107.633 36.0456 105.793 36 104.573 36C103.252 36 101.338 36.0456 98.8313 36.1367C98.7857 36 98.7629 35.8633 98.7629 35.7266C98.7629 35.5785 98.7857 35.436 98.8313 35.2993C101.133 35.0487 102.283 34.6157 102.283 34.0005C102.283 33.8068 102.261 33.6074 102.215 33.4023L99.7371 27.0449C98.9851 27.0221 97.9711 27.0107 96.6951 27.0107C96.0912 27.0107 94.5247 27.0335 91.9954 27.0791L89.3806 33.7271V33.9321C89.3806 34.0461 89.3977 34.1543 89.4319 34.2568C89.4775 34.3594 89.5458 34.4505 89.637 34.5303C89.7395 34.61 89.8363 34.6784 89.9275 34.7354C90.0186 34.7923 90.144 34.8493 90.3035 34.9062C90.4744 34.9518 90.6168 34.9917 90.7307 35.0259C90.856 35.0487 91.0212 35.0771 91.2263 35.1113C91.4428 35.1455 91.608 35.174 91.7219 35.1968C91.8359 35.2082 92.0011 35.2253 92.2175 35.248C92.4454 35.2708 92.6049 35.2879 92.696 35.2993C92.7416 35.4816 92.7644 35.6354 92.7644 35.7607C92.7644 35.8291 92.7416 35.9544 92.696 36.1367C90.144 36.0456 88.7084 36 88.3894 36C87.7742 36 86.1905 36.0456 83.6384 36.1367C83.5929 36 83.5701 35.8633 83.5701 35.7266C83.5701 35.5785 83.5929 35.436 83.6384 35.2993C86.0082 35.0259 87.3583 34.4448 87.6887 33.5562L95.0374 15.0308L94.6614 14.0225C95.3108 13.5895 95.7608 13.1224 96.0115 12.6211C96.2735 12.1198 96.4558 11.4533 96.5583 10.6216ZM96.6951 25.6777C97.7432 25.6777 98.5693 25.6663 99.1731 25.6436L95.926 17.2354H95.8577L92.5935 25.6094C93.6645 25.6549 95.0317 25.6777 96.6951 25.6777ZM136.104 18.6367C135.74 17.8278 135.381 17.1214 135.028 16.5176C134.674 15.9023 134.213 15.2643 133.643 14.6035C133.074 13.9427 132.464 13.4015 131.815 12.98C131.165 12.5584 130.368 12.2109 129.422 11.9375C128.476 11.6641 127.434 11.5273 126.295 11.5273C125.064 11.5273 123.948 11.778 122.945 12.2793C121.942 12.7806 121.116 13.4357 120.467 14.2446C119.829 15.0535 119.288 15.9935 118.844 17.0645C118.411 18.124 118.103 19.195 117.921 20.2773C117.738 21.3483 117.647 22.4364 117.647 23.5415C117.647 24.6353 117.744 25.7233 117.938 26.8057C118.131 27.8766 118.45 28.9419 118.895 30.0015C119.351 31.061 119.909 31.9896 120.57 32.7871C121.23 33.5846 122.062 34.234 123.065 34.7354C124.079 35.2253 125.201 35.4702 126.431 35.4702C128.938 35.4702 130.681 34.9119 131.661 33.7954V26.8569C131.661 26.6177 131.564 26.4069 131.37 26.2246C131.177 26.0309 130.955 25.8828 130.704 25.7803C130.453 25.6777 130.117 25.5866 129.696 25.5068C129.285 25.4157 128.949 25.353 128.687 25.3188C128.425 25.2847 128.095 25.2505 127.696 25.2163C127.65 25.034 127.628 24.8973 127.628 24.8062C127.628 24.7264 127.65 24.5954 127.696 24.4131C130.271 24.5042 132.253 24.5498 133.643 24.5498C135.056 24.5498 137.038 24.5042 139.591 24.4131C139.648 24.641 139.676 24.772 139.676 24.8062C139.676 24.8517 139.648 24.9884 139.591 25.2163C139.192 25.2505 138.861 25.2847 138.599 25.3188C138.337 25.353 137.996 25.4157 137.574 25.5068C137.164 25.5866 136.833 25.6777 136.583 25.7803C136.344 25.8828 136.127 26.0309 135.933 26.2246C135.74 26.4069 135.643 26.6177 135.643 26.8569V29.3862C135.643 31.5509 135.899 33.3226 136.412 34.7012C134.532 35.3962 132.863 35.9032 131.405 36.2222C129.946 36.5412 128.288 36.7007 126.431 36.7007C125.326 36.7007 124.215 36.5868 123.099 36.3589C121.982 36.131 120.809 35.7038 119.578 35.0771C118.359 34.4505 117.283 33.6644 116.348 32.7188C115.426 31.7731 114.656 30.5085 114.041 28.9248C113.437 27.3411 113.135 25.5467 113.135 23.5415C113.135 22.0946 113.289 20.7559 113.597 19.5254C113.916 18.2835 114.337 17.2183 114.862 16.3296C115.386 15.4409 116.007 14.6434 116.724 13.937C117.454 13.2306 118.211 12.6553 118.997 12.2109C119.783 11.7666 120.609 11.402 121.475 11.1172C122.353 10.821 123.184 10.6159 123.97 10.502C124.757 10.3766 125.531 10.314 126.295 10.314C127.571 10.314 128.784 10.3937 129.935 10.5532C131.097 10.7013 132.253 10.8893 133.404 11.1172C134.555 11.3337 135.466 11.4818 136.138 11.5615C135.968 12.0742 135.882 12.7977 135.882 13.7319C135.882 15.2814 136.161 16.791 136.719 18.2607C136.651 18.4658 136.446 18.5911 136.104 18.6367ZM154.083 10.6216C154.254 10.4963 154.436 10.4165 154.63 10.3823L163.978 33.7271C164.092 34.0119 164.28 34.2568 164.542 34.4619C164.804 34.6556 165.128 34.8094 165.516 34.9233C165.915 35.0259 166.256 35.1056 166.541 35.1626C166.837 35.2082 167.196 35.2537 167.618 35.2993C167.663 35.4816 167.686 35.6354 167.686 35.7607C167.686 35.8975 167.663 36.0228 167.618 36.1367C165.157 36.0456 163.317 36 162.098 36C160.776 36 158.862 36.0456 156.356 36.1367C156.31 36 156.287 35.8633 156.287 35.7266C156.287 35.5785 156.31 35.436 156.356 35.2993C158.657 35.0487 159.808 34.6157 159.808 34.0005C159.808 33.8068 159.785 33.6074 159.74 33.4023L157.261 27.0449C156.51 27.0221 155.496 27.0107 154.219 27.0107C153.616 27.0107 152.049 27.0335 149.52 27.0791L146.905 33.7271V33.9321C146.905 34.0461 146.922 34.1543 146.956 34.2568C147.002 34.3594 147.07 34.4505 147.161 34.5303C147.264 34.61 147.361 34.6784 147.452 34.7354C147.543 34.7923 147.668 34.8493 147.828 34.9062C147.999 34.9518 148.141 34.9917 148.255 35.0259C148.38 35.0487 148.546 35.0771 148.751 35.1113C148.967 35.1455 149.132 35.174 149.246 35.1968C149.36 35.2082 149.525 35.2253 149.742 35.248C149.97 35.2708 150.129 35.2879 150.22 35.2993C150.266 35.4816 150.289 35.6354 150.289 35.7607C150.289 35.8291 150.266 35.9544 150.22 36.1367C147.668 36.0456 146.233 36 145.914 36C145.299 36 143.715 36.0456 141.163 36.1367C141.117 36 141.094 35.8633 141.094 35.7266C141.094 35.5785 141.117 35.436 141.163 35.2993C143.533 35.0259 144.883 34.4448 145.213 33.5562L152.562 15.0308L152.186 14.0225C152.835 13.5895 153.285 13.1224 153.536 12.6211C153.798 12.1198 153.98 11.4533 154.083 10.6216ZM154.219 25.6777C155.268 25.6777 156.094 25.6663 156.698 25.6436L153.45 17.2354H153.382L150.118 25.6094C151.189 25.6549 152.556 25.6777 154.219 25.6777Z" fill="white"/>
<defs>
<linearGradient id="paint0_linear_103_118" x1="4.0146e-07" y1="26.2326" x2="6.56415" y2="121.337" gradientUnits="userSpaceOnUse">
<stop stop-color="#F822C8"/>
<stop offset="0.982074" stop-color="#4F0D92"/>
</linearGradient>
</defs>
</svg>
